<svg width="28" height="30" viewBox="0 0 28 30" fill="none" xmlns="http://www.w3.org/2000/svg">
<path d="M14.3437 5.284C16.6786 5.284 16.97 5.29323 17.8861 5.33938C18.8013 5.38553 19.4243 5.53968 19.9726 5.76859C20.5398 6.00304 21.0176 6.32056 21.4954 6.83284C21.9324 7.29427 22.2706 7.85242 22.4863 8.46846C22.6986 9.05643 22.8429 9.72655 22.8859 10.7096C22.9263 11.6935 22.9375 12.0064 22.9375 14.5143C22.9375 17.0222 22.9289 17.3351 22.8859 18.3191C22.8429 19.3021 22.6986 19.9713 22.4863 20.5602C22.2712 21.1766 21.933 21.7348 21.4954 22.1958C21.0657 22.665 20.5461 23.0281 19.9726 23.2601C19.4252 23.488 18.8013 23.6431 17.8861 23.6893C16.97 23.7326 16.6786 23.7446 14.3437 23.7446C12.0088 23.7446 11.7175 23.7354 10.8014 23.6893C9.88614 23.6431 9.26309 23.488 8.71481 23.2601C8.14103 23.0288 7.62128 22.6656 7.192 22.1958C6.75493 21.7345 6.41679 21.1763 6.20114 20.5602C5.98802 19.9722 5.8445 19.3021 5.80153 18.3191C5.76114 17.3351 5.74997 17.0222 5.74997 14.5143C5.74997 12.0064 5.75856 11.6935 5.80153 10.7096C5.8445 9.72563 5.98802 9.05735 6.20114 8.46846C6.41619 7.85204 6.75441 7.29373 7.192 6.83284C7.62141 6.36323 8.14112 6.00002 8.71481 5.76859C9.26309 5.53968 9.88528 5.38553 10.8014 5.33938C11.7175 5.296 12.0088 5.284 14.3437 5.284ZM14.3437 9.89916C13.2041 9.89916 12.1112 10.3854 11.3054 11.2509C10.4995 12.1164 10.0468 13.2903 10.0468 14.5143C10.0468 15.7383 10.4995 16.9122 11.3054 17.7777C12.1112 18.6432 13.2041 19.1295 14.3437 19.1295C15.4833 19.1295 16.5762 18.6432 17.3821 17.7777C18.1879 16.9122 18.6406 15.7383 18.6406 14.5143C18.6406 13.2903 18.1879 12.1164 17.3821 11.2509C16.5762 10.3854 15.4833 9.89916 14.3437 9.89916ZM19.9297 9.6684C19.9297 9.3624 19.8165 9.06893 19.615 8.85255C19.4136 8.63617 19.1403 8.51461 18.8554 8.51461C18.5705 8.51461 18.2973 8.63617 18.0958 8.85255C17.8944 9.06893 17.7812 9.3624 17.7812 9.6684C17.7812 9.9744 17.8944 10.2679 18.0958 10.4843C18.2973 10.7006 18.5705 10.8222 18.8554 10.8222C19.1403 10.8222 19.4136 10.7006 19.615 10.4843C19.8165 10.2679 19.9297 9.9744 19.9297 9.6684ZM14.3437 11.7452C15.0275 11.7452 15.6832 12.037 16.1667 12.5563C16.6502 13.0756 16.9218 13.7799 16.9218 14.5143C16.9218 15.2487 16.6502 15.9531 16.1667 16.4724C15.6832 16.9917 15.0275 17.2834 14.3437 17.2834C13.66 17.2834 13.0042 16.9917 12.5207 16.4724C12.0372 15.9531 11.7656 15.2487 11.7656 14.5143C11.7656 13.7799 12.0372 13.0756 12.5207 12.5563C13.0042 12.037 13.66 11.7452 14.3437 11.7452Z" fill="#3742FA"/>
</svg>
