<svg width="28" height="30" viewBox="0 0 28 30" fill="none" xmlns="http://www.w3.org/2000/svg">
<path d="M23.0767 8.65892C22.4206 8.97062 21.7249 9.17533 21.0125 9.26627C21.7634 8.78392 22.3254 8.02481 22.5937 7.13037C21.8891 7.58081 21.1165 7.89649 20.3112 8.06725C19.7704 7.44566 19.0534 7.03342 18.2719 6.89462C17.4904 6.75581 16.6881 6.89822 15.9897 7.29971C15.2913 7.70119 14.736 8.33925 14.41 9.1147C14.0841 9.89015 14.0058 10.7595 14.1873 11.5877C12.7583 11.5108 11.3603 11.1119 10.0841 10.417C8.80786 9.72207 7.68198 8.74665 6.77953 7.55405C6.46009 8.14336 6.29222 8.81327 6.29312 9.49518C6.29312 10.8336 6.92734 12.016 7.89156 12.7083C7.32094 12.689 6.76288 12.5234 6.2639 12.2255V12.2735C6.26407 13.1649 6.55125 14.0288 7.07674 14.7187C7.60223 15.4086 8.33369 15.8821 9.1471 16.0589C8.6174 16.213 8.06198 16.2358 7.52289 16.1253C7.75223 16.8926 8.19922 17.5636 8.80129 18.0444C9.40335 18.5252 10.1303 18.7918 10.8805 18.8067C10.1349 19.4356 9.28132 19.9005 8.36841 20.1748C7.4555 20.4491 6.5012 20.5275 5.56007 20.4054C7.20294 21.5402 9.11539 22.1427 11.0687 22.1407C17.6798 22.1407 21.2952 16.2582 21.2952 11.1566C21.2952 10.9905 21.2909 10.8225 21.2841 10.6582C21.9878 10.1119 22.5951 9.4352 23.0776 8.65984L23.0767 8.65892Z" fill="#3742FA"/>
</svg>
